<svg id="图层_1" data-name="图层 1" xmlns="http://www.w3.org/2000/svg" viewBox="0 0 11 11"><defs><style>.cls-1{fill:none;}.cls-2{fill:#bec2ca;}</style></defs><title>button-more</title><rect class="cls-1" width="11" height="11"/><path id="形状" class="cls-2" d="M5.71,5.8l-4,4,0,0A1,1,0,0,1,.31,8.39L3.59,5.1.31,1.8A1,1,0,0,1,.32.43a1,1,0,0,1,1.4,0l4,4h0a1,1,0,0,1,0,1.41Zm5,0-4,4,0,0A1,1,0,0,1,5.31,8.39L8.59,5.1,5.31,1.8a1,1,0,0,1,0-1.37,1,1,0,0,1,1.4,0l4,4h0a1,1,0,0,1,0,1.41Z" transform="translate(0 0.38)"/></svg>