<svg id="图层_1" data-name="图层 1" xmlns="http://www.w3.org/2000/svg" xmlns:xlink="http://www.w3.org/1999/xlink" viewBox="0 0 24 24"><defs><style>.cls-1{fill:#fff;fill-rule:evenodd;}.cls-2{fill:none;}.cls-3{mask:url(#mask);}</style><mask id="mask" x="0" y="0" width="24" height="24" maskUnits="userSpaceOnUse"><g id="mask-3"><polygon id="path-2" class="cls-1" points="0 0 24 0 24 24 0 24 0 0"/></g></mask></defs><title>logo-bottom-ehb</title><rect class="cls-2" width="24" height="24"/><g class="cls-3"><path id="Fill-1" class="cls-1" d="M22.68,13.75a1.25,1.25,0,0,0,.11-.83,1.44,1.44,0,0,0-.62.53h0c0-.2,0-.4.07-.6a1.11,1.11,0,0,0,.56-.54,1.23,1.23,0,0,0,0-.82,1.35,1.35,0,0,0-.52.57,6.08,6.08,0,0,0,0-.61,1,1,0,0,0,.44-.57,1.21,1.21,0,0,0-.13-.77,1.17,1.17,0,0,0-.4.59c0-.21-.08-.42-.13-.62a.86.86,0,0,0,.32-.59,1.11,1.11,0,0,0-.24-.72,1.12,1.12,0,0,0-.28.6c-.08-.23-.16-.44-.24-.64a.87.87,0,0,0,.21-.59,1.2,1.2,0,0,0-.35-.66,1.11,1.11,0,0,0-.17.56,9.36,9.36,0,0,0-.56-1,1,1,0,0,0-.19-.52,1.31,1.31,0,0,0-.65-.41,1.29,1.29,0,0,0,.24.65,1.43,1.43,0,0,0,.55.41l.14.21a1.1,1.1,0,0,0-.65-.2,1.27,1.27,0,0,0,.36.58,1.27,1.27,0,0,0,.64.25c.09.18.19.38.28.61a1.07,1.07,0,0,0-.58-.24,1.32,1.32,0,0,0,.27.61,1.21,1.21,0,0,0,.58.32c.06.2.12.4.18.62a1.07,1.07,0,0,0-.55-.31,1.23,1.23,0,0,0,.17.66,1.28,1.28,0,0,0,.54.41c0,.18.06.37.08.57a1.12,1.12,0,0,0-.54-.4,1.23,1.23,0,0,0,.07.72,1.23,1.23,0,0,0,.51.5c0,.17,0,.35,0,.52a1.12,1.12,0,0,0-.5-.48,1.31,1.31,0,0,0,0,.75,1.27,1.27,0,0,0,.44.57L22,14a1.22,1.22,0,0,0-.42-.53,1.39,1.39,0,0,0-.16.78,1.27,1.27,0,0,0,.34.63c0,.14-.09.28-.14.42a1,1,0,0,0-.34-.58,1.42,1.42,0,0,0-.28.76,1.3,1.3,0,0,0,.26.7c-.06.13-.12.27-.19.4a1.06,1.06,0,0,0-.26-.68,1.62,1.62,0,0,0-.41.75,1.23,1.23,0,0,0,.16.77c-.1.15-.2.29-.32.44a.88.88,0,0,0-.11-.65,1.52,1.52,0,0,0-.46.61,1.09,1.09,0,0,0,0,.7c-.16.17-.31.33-.46.47a.86.86,0,0,0,0-.7,1.64,1.64,0,0,0-.57.56,1.13,1.13,0,0,0-.1.69,4.8,4.8,0,0,1-1.18.71l0,.11A5.28,5.28,0,0,0,18,20a1.3,1.3,0,0,0,.84,0,1.51,1.51,0,0,0,.68-.57,1.67,1.67,0,0,0-.72,0c.15-.12.31-.26.47-.41a1.27,1.27,0,0,0,.75-.13,1.42,1.42,0,0,0,.57-.64,1.61,1.61,0,0,0-.7.12l0,0,.22-.27a1.54,1.54,0,0,0,.88-.25,1.51,1.51,0,0,0,.53-.8,1.83,1.83,0,0,0-.85.28c.1-.15.19-.3.28-.46a1.32,1.32,0,0,0,.81-.33,1.43,1.43,0,0,0,.38-.82,1.66,1.66,0,0,0-.79.38l.15-.34h0l.06-.15a1.32,1.32,0,0,0,.76-.42,1.31,1.31,0,0,0,.25-.84,1.6,1.6,0,0,0-.72.47l0,0c0-.06,0-.12.05-.17a1.45,1.45,0,0,0,.11-.4.31.31,0,0,1,0-.08v.05a1.22,1.22,0,0,0,.66-.49ZM15,21.91a.74.74,0,0,0,0-.21.57.57,0,0,0,0-.18v0s0-.05-.05,0,0,.07,0,.07v.16a.62.62,0,0,1-.31.52s-.07,0-.11,0,0-.06,0-.09l0,0a1.74,1.74,0,0,0,.11-.18.2.2,0,0,0,0-.11l-.05,0s0,0,0,0a.68.68,0,0,1-.18.23l-.16.14a.41.41,0,0,0,0,.46,2.52,2.52,0,0,0,.22.3,1.33,1.33,0,0,1,.11-.24c.13-.21.28-.41.42-.62a.35.35,0,0,0,.06-.14Zm-.93.55h0v-.12a.55.55,0,0,1,.18-.31c.07-.08.15-.15.22-.24a.72.72,0,0,0,.11-.19.26.26,0,0,0-.08-.28.28.28,0,0,0-.09-.05l0,.07a.08.08,0,0,1,0,.12s-.07,0-.1-.05a.24.24,0,0,1,0-.22s0-.07,0-.12a.28.28,0,0,0-.15.35.25.25,0,0,1,0,.12l-.06.06a.06.06,0,0,1-.08-.05h0a.73.73,0,0,0,.05-.09l0,0a.2.2,0,0,0,0-.05h0s0,0,0,0l0,0,0,0a.27.27,0,0,0-.07.08l0,0a.54.54,0,0,0-.09.25.94.94,0,0,0,.24.65Zm-1.57-.31h0a.57.57,0,0,0-1-.57.53.53,0,0,0,0,.6.87.87,0,0,1,.11.18.21.21,0,0,0,.19.15l.21,0c.06,0,.14,0,.14.08s-.09.08-.15.08l-.28,0a.36.36,0,0,0,.17.07,1.61,1.61,0,0,1,.22,0,.16.16,0,0,1,.07.07.14.14,0,0,1-.06.08h-.36A2.1,2.1,0,0,0,12,23s.06,0,.09.06a.2.2,0,0,1-.08.08.31.31,0,0,1-.14,0,.15.15,0,0,0,.21,0,.33.33,0,0,0,.16-.32v-.14c0-.14,0-.19-.19-.19a.9.9,0,0,1-.23,0c-.09,0-.11-.06-.09-.14a1.09,1.09,0,0,1,.59.06l.14-.22Zm-2.23.51h0a.6.6,0,0,1,.39.06c-.07-.26-.3-.29-.61-.3a1,1,0,0,1-.65-.19c-.16-.13-.17-.59.18-.62s.39.23.36.33-.18.08-.22,0-.22,0-.22,0c.23.09-.05.17.27.31a.41.41,0,0,0,.59-.34.33.33,0,0,0-.19-.33s0-.34-.41-.36a.5.5,0,0,0-.53.36.33.33,0,0,0-.29.45.48.48,0,0,0,.36.35c0,.52.79.33,1,.27ZM6.61,20.31l0-.11a5.09,5.09,0,0,1-1.17-.71,1.16,1.16,0,0,0-.1-.7,1.57,1.57,0,0,0-.57-.55.86.86,0,0,0,0,.7c-.15-.14-.3-.3-.46-.47a1.09,1.09,0,0,0,0-.7,1.44,1.44,0,0,0-.46-.61.87.87,0,0,0-.11.65c-.12-.15-.22-.29-.32-.44a1.23,1.23,0,0,0,.16-.77,1.51,1.51,0,0,0-.42-.75,1.15,1.15,0,0,0-.25.68l-.2-.4a1.22,1.22,0,0,0,.27-.7,1.49,1.49,0,0,0-.29-.77,1.14,1.14,0,0,0-.33.59,3.45,3.45,0,0,1-.14-.42,1.34,1.34,0,0,0,.34-.64,1.37,1.37,0,0,0-.16-.77,1.14,1.14,0,0,0-.42.53L2,13.5a1.2,1.2,0,0,0,.43-.57,1.25,1.25,0,0,0,0-.75,1.12,1.12,0,0,0-.5.48c0-.18,0-.35,0-.52a1.22,1.22,0,0,0,.5-.5,1.18,1.18,0,0,0,.08-.72,1.12,1.12,0,0,0-.54.4c0-.2.05-.39.08-.58a1.1,1.1,0,0,0,.53-.4,1.19,1.19,0,0,0,.18-.66,1.1,1.1,0,0,0-.55.3l.18-.61a1.15,1.15,0,0,0,.57-.32,1.11,1.11,0,0,0,.27-.61,1,1,0,0,0-.57.24c.09-.23.19-.43.28-.61a1.38,1.38,0,0,0,.64-.25,1.27,1.27,0,0,0,.36-.58,1.09,1.09,0,0,0-.65.2l.14-.21a1.5,1.5,0,0,0,.55-.41,1.41,1.41,0,0,0,.24-.65,1.34,1.34,0,0,0-.65.4,1,1,0,0,0-.19.53,9.36,9.36,0,0,0-.56,1,1.11,1.11,0,0,0-.17-.56,1.2,1.2,0,0,0-.35.66.82.82,0,0,0,.21.59c-.08.2-.16.41-.24.64a1.2,1.2,0,0,0-.28-.6,1.15,1.15,0,0,0-.25.72.9.9,0,0,0,.33.59c-.05.2-.09.41-.13.62a1.24,1.24,0,0,0-.4-.59,1.21,1.21,0,0,0-.13.77,1,1,0,0,0,.43.57c0,.2,0,.4,0,.61a1.35,1.35,0,0,0-.52-.57,1.23,1.23,0,0,0,0,.82,1.07,1.07,0,0,0,.56.54c0,.2,0,.4.07.6h0a1.44,1.44,0,0,0-.62-.53,1.25,1.25,0,0,0,.11.83,1.22,1.22,0,0,0,.66.49v-.05a.31.31,0,0,1,0,.08,1.45,1.45,0,0,0,.11.4c0,.05,0,.11.05.17l0,0a1.6,1.6,0,0,0-.72-.47,1.31,1.31,0,0,0,.25.84,1.32,1.32,0,0,0,.76.42l.06.15h0l.15.34a1.66,1.66,0,0,0-.79-.38,1.43,1.43,0,0,0,.38.82,1.32,1.32,0,0,0,.81.33c.09.16.18.31.28.46A1.83,1.83,0,0,0,2.48,17a1.44,1.44,0,0,0,.53.8,1.54,1.54,0,0,0,.88.25l.22.27,0,0a1.63,1.63,0,0,0-.7-.12,1.35,1.35,0,0,0,.57.64,1.27,1.27,0,0,0,.75.13c.16.15.32.29.47.41a1.67,1.67,0,0,0-.72,0,1.45,1.45,0,0,0,.68.57A1.3,1.3,0,0,0,6,20a5.28,5.28,0,0,0,.58.3ZM14.75,22h0c.07-.07.08-.12.05-.19a2.09,2.09,0,0,1-.08-.23l0,0a.08.08,0,0,0,0,0,0,0,0,0,0,0,.05c0,.12.07.23.11.36Zm0-.5h0a1,1,0,0,0,.09.32.7.7,0,0,0,0-.38s0,0-.06,0a.07.07,0,0,0,0,.07ZM12,3h0a9,9,0,1,0,9,9,9,9,0,0,0-9-9Zm-6.16.19h0s0,0,0,.08.06.22.13.2a.41.41,0,0,0,.2-.09.06.06,0,0,0,0-.08s-.07,0-.15,0a.32.32,0,0,1-.18-.06Zm.3-.44h0s0,.07.06.18l0,.07a2.44,2.44,0,0,1,.14.28s0,.05,0,.09a.3.3,0,0,1-.1.09l0,0s0,0,0,.06h0q.13.09.15.06a0,0,0,0,0,0,0,.24.24,0,0,1,.06-.08s0,0,.06.09a.57.57,0,0,1-.08.13l-.06.07c-.07-.13-.11-.18-.11-.15a.74.74,0,0,1,0,.55s-.06,0-.1,0a.57.57,0,0,1-.07-.43s0,0-.06,0L6,3.7s0,.07,0,.15L6.05,4a1.85,1.85,0,0,0,.23.34s.08.06.11,0h0s0,0,0,0a1.55,1.55,0,0,1,0-.23.81.81,0,0,0,0-.16.25.25,0,0,1,0-.12l.07.08A.36.36,0,0,0,6.65,4a.06.06,0,0,0,.07,0s0,0,.07-.08,0,0,0-.05l.05,0s.07-.05.08-.08l0,0a.45.45,0,0,1,0-.28s0,0-.14,0h0l0,0s0,0-.06-.1a.15.15,0,0,1,0-.06.19.19,0,0,0,0-.08s0-.08,0-.1-.06-.06-.09,0l-.08.09s0,0,0,0,0,0,0,0a2.1,2.1,0,0,1-.15-.31s0,0,0-.05,0-.08,0-.09a.24.24,0,0,0-.13,0Zm.52.07s0,.05,0,.06c.39.55.49,1,.3,1.31,0,0,0,0,0,0L7,4.17a.51.51,0,0,0,.17-.31v0l0,0,0,0a.77.77,0,0,1-.07-.34l0,0a.17.17,0,0,0,.07-.08.11.11,0,0,0,0-.11l-.08,0s-.07,0-.08,0,0,0,0,0l0,0a.08.08,0,0,1,0,0l0-.06s0,0,0,0H7A.13.13,0,0,0,7,3s0-.07-.07-.08,0,0,0,.05,0,0,0,0-.06-.06-.09-.15a.17.17,0,0,1,.08-.12s.06,0,.1,0a.37.37,0,0,0,.06.1l.08.09a3.48,3.48,0,0,1,.38.61c0,.07-.08.12-.23.16s0,0,0,.06a.36.36,0,0,0,.21,0l.19-.07.09,0s0,0-.07-.07,0,0,0,0a.24.24,0,0,1-.08-.09l0-.06-.13-.2a5,5,0,0,0-.29-.45.29.29,0,0,1-.06-.15v0s-.08,0-.19,0a.84.84,0,0,0-.18.19.11.11,0,0,1,0,.05Zm1.2-.37s-.05.06,0,.13.1.19.14.19a1.2,1.2,0,0,0,.28-.12s0,0,0,0a.34.34,0,0,1,0,.08l0,0A1,1,0,0,1,8.2,3l-.07.11A.47.47,0,0,1,8,3.25H8s0,0,0,0a.4.4,0,0,0,.22.07l0-.07A1.3,1.3,0,0,1,8.46,3h0a.05.05,0,0,0,0-.06s0,0,0,0a0,0,0,0,1,0,0,.58.58,0,0,1,0-.1c0-.09,0-.14,0-.15s0,0-.06.07l0,0a2.31,2.31,0,0,1-.11-.29A1.66,1.66,0,0,1,8.23,2s0,0,0,0a.19.19,0,0,0-.13,0,2.48,2.48,0,0,0,.12.45l0,.06s0,0,0,0a.61.61,0,0,1-.26,0Zm.71-.94h0a.31.31,0,0,0-.17,0,.13.13,0,0,0,0,.06l0,.06c0,.18.06.33.09.46a.89.89,0,0,0,0,.11,1.36,1.36,0,0,0,.06.24.87.87,0,0,0,.21.39A.85.85,0,0,0,9,3l.08.05s0,0,0,0h0a2.85,2.85,0,0,0,.5-.23h0c.07,0,.09-.07.05-.11a.13.13,0,0,1,0-.07,2.44,2.44,0,0,0-.33-.5s0,0,0,0a1.09,1.09,0,0,1,.1.44c0,.07,0,.12-.14.15s-.31.09-.39,0a.65.65,0,0,1-.13-.29s0,0,0,0h.13s0,0,0,0,0-.09.08-.2.05-.06.08-.07,0,0,0,0A.22.22,0,0,0,9,1.91c-.08,0-.11,0-.1,0s0,.11-.14.24l-.06.07s0,0,0,0a1.8,1.8,0,0,0-.1-.39.65.65,0,0,1,0-.25,0,0,0,0,0,0-.05Zm1.54.81a1.81,1.81,0,0,0,0,.22s-.06.07-.13.12a.15.15,0,0,0,.1.12l.14-.09.1-.07.1-.06a1.56,1.56,0,0,0,.2-.17.26.26,0,0,0,.05-.18l-.16.08s0,0-.05,0V2.16A.58.58,0,0,0,10.64,2a.14.14,0,0,0,0-.15l-.14,0h0a.62.62,0,0,1,0-.16.93.93,0,0,0,.14-.14.11.11,0,0,0-.09-.12l-.13.06a2.87,2.87,0,0,1-.37.14s0,0,0,.05.08.16.08.14.06.05.12,0a.09.09,0,0,1,.08.06,1.92,1.92,0,0,1,0,.47.1.1,0,0,1-.08.06,1,1,0,0,1,0-.38s-.07,0-.17,0,0,0,0,0a1.88,1.88,0,0,1,0,.23Zm.78-1.24h0a2.18,2.18,0,0,1-.22,1s.05,0,.08,0a0,0,0,0,1,0,0s0,.06,0,.07l0,0a.68.68,0,0,1,.18.13.75.75,0,0,1-.48.32c0,.05,0,.07.14.07s.29-.07.33-.14a.45.45,0,0,1,0-.1l.07-.1c.15.06.22.15.21.28h.48s.09,0,.1,0,0,0-.05,0l-.24-.09a.89.89,0,0,1-.44-.28,1,1,0,0,0,.05-.36c0-.07.07-.13.2-.16s.05,0,0-.09-.11-.11-.15-.1a1.34,1.34,0,0,1-.29.2s-.05,0-.05,0A1.63,1.63,0,0,0,11,1.28a.61.61,0,0,1,0-.19s0,0-.09,0h0s0,0,0,0Zm2.57,1.09h0a.08.08,0,0,1,0-.07A.52.52,0,0,0,13.2,2s0,0,0-.07l-.09,0s-.06,0-.08.09A.09.09,0,0,1,13,2a.4.4,0,0,1-.24,0s0,0,0,.07,0,.08,0,.08l.15,0s0,0,0,.08a2.28,2.28,0,0,1-.22.22.79.79,0,0,1-.14.13s0,0,0,0,.08,0,.13-.08l.1-.07a.3.3,0,0,1,.14.18.35.35,0,0,0,.18.13.16.16,0,0,1,0-.07l0,0a.6.6,0,0,1,.09-.15.55.55,0,0,0,.2-.37Zm-.77-.59h0a.28.28,0,0,1,.31,0l-.27.2-.12.09a.7.7,0,0,1-.44.15s.09.07.21.09.06,0,.08,0,0,0,.12-.07A.37.37,0,0,0,12.7,2l.08-.05.16-.09a.8.8,0,0,0,.16-.13h0a.41.41,0,0,0,.17.12c.21.13.3.23.29.33s0,0,0,.05h.05l.24.06a.27.27,0,0,0,.25,0,1.17,1.17,0,0,0-.28-.19,1.08,1.08,0,0,1-.39-.24s0,0-.09-.06l-.07-.05c-.07,0-.06-.11,0-.2l.1-.11s0-.07.07-.08.08,0,.07-.05a.18.18,0,0,1-.05-.07.22.22,0,0,0-.17-.06h-.09c0-.09-.07-.14-.11-.14s-.05,0-.05,0L13,1.11a5.54,5.54,0,0,0-.43.41,0,0,0,0,0,0,0l-.1.12s0,0,0,0l.15-.09Zm1.53,1.09s0,0,0,0a.33.33,0,0,0,.14,0,.31.31,0,0,0,.21-.11.11.11,0,0,1,0-.05v0l.07-.13s0,0,.11-.06a.68.68,0,0,0,.15,0,.26.26,0,0,0,0-.11h0l-.14,0a.23.23,0,0,1,.11-.11l.12,0h0a.46.46,0,0,0,0-.1l-.1,0s0,0,0,0A.11.11,0,0,1,15,1.78s0,0,0,0,.08-.05.11,0,.06.07,0,.14a.64.64,0,0,1-.07.16.65.65,0,0,0,0,.15l-.11.3a.34.34,0,0,0,0,.12.36.36,0,0,0,0,.11c-.05.05-.12,0-.22-.06h0a0,0,0,0,0,0,0,.86.86,0,0,0,.11.24.32.32,0,0,0,.11.12s.05,0,.07-.07a.49.49,0,0,1,0-.12,1.37,1.37,0,0,0,0-.18L15.28,2l.06-.1.09-.13a.28.28,0,0,0-.14-.09l-.13,0H15.1a.42.42,0,0,0-.16,0s-.06.06-.08.13h0l-.12.32c0,.09-.06.14-.07.17a.89.89,0,0,1-.17.18,0,0,0,0,0,0,0,1.91,1.91,0,0,1-.24.17s0,0,0,0ZM15.45,2a.29.29,0,0,0-.06.1l-.09.25-.05.1,0,.06a.07.07,0,0,1,0,0l-.11.32a1.17,1.17,0,0,1,0,.11l0,0A.57.57,0,0,0,15,3.1s0,0,0,0h0c.05,0,.08,0,.08,0v0l0-.1c.09,0,.21,0,.35-.09a.27.27,0,0,1,.1.14.54.54,0,0,1,0,.11s0,0,0,0a.23.23,0,0,0,.12.08c.19.08.3.1.34.06a1.05,1.05,0,0,0-.21-.25L15.8,3c-.08-.08-.12-.14-.12-.19s0,0,.06-.06l.06,0a.52.52,0,0,0,.12-.13l0,0q.07-.09-.12-.18a.32.32,0,0,0-.2,0h-.06c-.08,0-.14,0-.16,0a.6.6,0,0,1,.09-.24h0a.66.66,0,0,0,.27.2s.12-.09.24-.26l0,0,0,0s0,0,0-.06L16,1.83l-.3-.05h0s-.08,0-.09,0a.1.1,0,0,0,.06.12s0,0,.09,0,0,0,0,0,0,0,.06,0,0,0,.05.05-.05.15-.1.17-.1,0-.19,0,0,0,0,0a0,0,0,0,1,0,0s0,0-.12-.08Zm1.33,1.86h0a.37.37,0,0,1,0,.22.4.4,0,0,0,.09.2L17,4.18H17l.15-.08a.68.68,0,0,0,.36-.23.09.09,0,0,1,.06-.06.57.57,0,0,0-.21-.24s0,0,.06-.05a.24.24,0,0,0-.06-.09s-.07,0-.11,0a.1.1,0,0,1-.12,0,.37.37,0,0,1-.22-.1s0,0,0,.06,0,.08,0,.08l.15.06-.07,0a1.61,1.61,0,0,1-.29.09.67.67,0,0,1-.19,0s0,0,0,.06a.21.21,0,0,0,.16,0l.12,0Zm.12-.58a.64.64,0,0,1-.45-.08c0,.05,0,.1.14.18a.05.05,0,0,0,.08,0h.14a.23.23,0,0,0,.14,0h.28a.66.66,0,0,0,.21,0h0a.61.61,0,0,0,.09.18c.13.21.16.35.1.43s0,0,0,0,0,0,0,0a1.72,1.72,0,0,0,.19.17.26.26,0,0,0,.23.09,1.11,1.11,0,0,0-.16-.3,1.14,1.14,0,0,1-.23-.39.28.28,0,0,1-.05-.1l0-.07c0-.07,0-.13.11-.16l.14-.06a.23.23,0,0,1,.11,0c.05,0,.08,0,.08,0A.17.17,0,0,1,18,3a.2.2,0,0,0-.12-.13l-.09,0c0-.1,0-.15,0-.17a.06.06,0,0,0-.06,0l-.08,0a4.44,4.44,0,0,0-.58.15h0l-.15.05s0,0,0,0h.18a.28.28,0,0,1,.25.19l-.34,0-.15,0ZM12,.64A11.36,11.36,0,1,1,.64,12,11.35,11.35,0,0,1,12,.64ZM6.69,3.82s-.05,0-.09,0a.08.08,0,0,1,0-.08s.06-.07.09-.07a.07.07,0,0,1,.06,0s0,.09,0,.14Zm8.92-1.1s0,0,0,0-.09-.16-.08-.2.06,0,.14,0,.08,0,.07.07a.33.33,0,0,1-.1.17l0,0Zm2,.4s-.06,0-.08-.05a.2.2,0,0,1,0-.15.52.52,0,0,1,.22,0c.06,0,.08.06.08.07a1.83,1.83,0,0,1-.21.15Zm-.67.81a.31.31,0,0,1-.05-.1s0,0,0,0a1.47,1.47,0,0,0,.37-.13s.06,0,.08,0,0,.11,0,.17A1.24,1.24,0,0,1,17,4s-.07,0-.1-.07ZM15.33,2.54q.08,0,.12.18a.22.22,0,0,0,0,.09s0,0,0,0l-.19.08-.07,0,0-.09v0a.05.05,0,0,1,0,0ZM11,2.09C10.94,2,10.89,2,10.89,2h0a.19.19,0,0,1,0-.08.2.2,0,0,1,.11,0,.35.35,0,0,1,0,.28l0,0Zm2.15,0c.07,0,.09.08.08.16a1.74,1.74,0,0,1-.2.3s-.06,0-.12,0a.16.16,0,0,1-.08-.06s0,0,0,0a1.2,1.2,0,0,0,.26-.29s0-.05.06-.05Zm-.12-.6A.17.17,0,0,1,13,1.37a.39.39,0,0,1,.19-.12c.06,0,.1,0,.1,0a1.26,1.26,0,0,1-.12.22s-.06,0-.09,0ZM12,.14A11.86,11.86,0,1,0,23.86,12,11.87,11.87,0,0,0,12,.14ZM12,24A12,12,0,0,1,3.51,3.52a12,12,0,1,1,17,17A11.92,11.92,0,0,1,12,24Zm6-11.54a3.64,3.64,0,0,1,.44,3.19c-.49,1.24-2,1.42-3.17,1.75a1.55,1.55,0,0,0-1.14,1.41H9.87A1.55,1.55,0,0,0,8.73,17.4c-1.14-.33-2.68-.51-3.17-1.75A3.64,3.64,0,0,1,6,12.46,12.07,12.07,0,0,0,7.19,10,1.8,1.8,0,0,0,6.3,7.85s-.24,0-.16-.18h2S10,7.57,9.8,9.23s-.52,3.25-.54,3.68-.23,1.89,1.4,2V8.74s0-.2.09-.2h.37s.08,0,.08.19v7.16a6.9,6.9,0,0,1-2-.25A2.06,2.06,0,0,1,7.9,14a6,6,0,0,1,.5-2.16,9.22,9.22,0,0,0,.8-2.39c0-.74-.19-1.52-1-1.36s0,1.58.62.62c0,0,.24.12.1.82a9,9,0,0,1-.81,2,5.26,5.26,0,0,0-.66,2.8,2.23,2.23,0,0,0,2.14,1.77,17.3,17.3,0,0,0,2.2.11V8.59s0-.09.1-.09h.3c.11,0,.1.09.1.09v7.64a17.3,17.3,0,0,0,2.2-.11,2.23,2.23,0,0,0,2.14-1.77,5.26,5.26,0,0,0-.66-2.8,9,9,0,0,1-.81-2c-.14-.7.1-.82.1-.82.66,1,1.47-.47.62-.62s-1.06.62-1,1.36a9.61,9.61,0,0,0,.8,2.39A6,6,0,0,1,16.1,14a2.06,2.06,0,0,1-1.3,1.63,6.9,6.9,0,0,1-2,.25V8.73c0-.21.08-.19.08-.19h.37c.12,0,.09.2.09.2v6.2c1.63-.14,1.42-1.61,1.4-2s-.37-2-.54-3.68,1.68-1.56,1.68-1.56h2c.08.16-.16.18-.16.18A1.8,1.8,0,0,0,16.81,10,12.07,12.07,0,0,0,18,12.46Z"/></g></svg>