<svg id="图层_1" data-name="图层 1" xmlns="http://www.w3.org/2000/svg" viewBox="0 0 22 18.11"><defs><style>.cls-1{fill:none;}.cls-2{fill:#fff;}</style></defs><title>logo-bottom-wx</title><rect class="cls-1" y="0.11" width="22" height="18"/><path id="形状" class="cls-2" d="M15.23,5.28a6.49,6.49,0,0,1,.77,0C15.31,2.24,11.88-.06,8-.06c-4.37,0-8,2.88-8,6.52,0,2.11,1.19,3.84,3.19,5.18l-.8,2.3L5.17,12.6A14.17,14.17,0,0,0,8,13q.38,0,.75,0a5.35,5.35,0,0,1-.25-1.6c0-3.35,3-6.07,6.77-6.07ZM11.09,2.94a.9.9,0,0,1,.91,1,.9.9,0,0,1-.91,1,1.05,1.05,0,0,1-1.09-1,1.05,1.05,0,0,1,1.09-1Zm-6,2A1.05,1.05,0,0,1,4,3.94a1.05,1.05,0,0,1,1.09-1,.9.9,0,0,1,.91,1,.9.9,0,0,1-.91,1ZM22,11.56c0-3.1-3.06-5.62-6.5-5.62C11.87,5.94,9,8.46,9,11.56s2.87,5.61,6.5,5.61a9.24,9.24,0,0,0,2.3-.39l2.1,1.16L19.32,16A5.85,5.85,0,0,0,22,11.56Zm-9.11-.62a1,1,0,0,1,0-2,1.06,1.06,0,0,1,1.11,1,1.05,1.05,0,0,1-1.11,1Zm5,0a1,1,0,0,1,0-2,1.06,1.06,0,0,1,1.11,1,1.06,1.06,0,0,1-1.11,1Z" transform="translate(0 0.06)"/></svg>