<svg id="图层_1" data-name="图层 1" xmlns="http://www.w3.org/2000/svg" xmlns:xlink="http://www.w3.org/1999/xlink" viewBox="0 0 37 30"><defs><style>.cls-1{fill:#fff;}.cls-2{fill:none;}.cls-3{mask:url(#mask);}.cls-4,.cls-5{stroke:#fff;fill-rule:evenodd;}.cls-4{fill:url(#未命名的渐变_2);}.cls-5{fill:url(#未命名的渐变_3);}</style><mask id="mask" x="-1.5" y="-1.5" width="40" height="34" maskUnits="userSpaceOnUse"><g transform="translate(-0.5 -0.5)"><g id="mask-3"><rect id="path-2" class="cls-1" x="-1" y="-1" width="40" height="34"/></g></g></mask><linearGradient id="未命名的渐变_2" x1="-11.02" y1="47.45" x2="-11.02" y2="46.45" gradientTransform="matrix(25, 0, 0, -29, 300, 1377)" gradientUnits="userSpaceOnUse"><stop offset="0" stop-color="#f9b6ba"/><stop offset="1" stop-color="#fc0b08"/></linearGradient><radialGradient id="未命名的渐变_3" cx="-10.73" cy="48.29" r="0.69" gradientTransform="matrix(0, 19, 19.86, 0, -948.34, 220.72)" gradientUnits="userSpaceOnUse"><stop offset="0" stop-color="#fff"/><stop offset="1" stop-color="#1b16cb"/></radialGradient></defs><title>logo-bottom-blxxjbzx(1)</title><rect class="cls-2" x="0.5" y="0.5" width="36" height="29"/><g class="cls-3"><g id="路径"><path class="cls-4" d="M34.15,3.33a6.34,6.34,0,0,0-2.67-1.48C27.12.7,22.3,4.5,20.72,10.35s.66,11.53,5,12.68,9.18-2.65,10.76-8.5a13.91,13.91,0,0,0,.5-3.19,19.75,19.75,0,0,1-3,9.81C29.52,28.52,21.63,32,16.38,28.85S10.51,17.23,15,9.85,27.37-1,32.62,2.15a8,8,0,0,1,1.53,1.18Z" transform="translate(-0.5 -0.5)"/><path class="cls-5" d="M13.81,26.49l.49.65C8.84,30.38,3.42,31,1.6,28.34c-2-2.95,1.24-8.87,7.31-13.2S21.54,9.7,23.58,12.66a3.5,3.5,0,0,1,.42.87c-1.92-1.36-6.21-.37-10.22,2.49-4.48,3.2-6.92,7.54-5.44,9.69.88,1.29,3,1.5,5.47.78Z" transform="translate(-0.5 -0.5)"/></g></g></svg>